<svg width="20" height="21" viewBox="0 0 20 21" fill="none" xmlns="http://www.w3.org/2000/svg">
<circle cx="10" cy="10.1455" r="10" fill="#4E6297"/>
<path d="M14.5 7.05498C14.5 6.3062 13.8394 5.64551 13.0907 5.64551H7.40932C6.66062 5.64551 6 6.3062 6 7.05498V12.7369C6 13.4857 6.66062 14.1464 7.40932 14.1464H10.272V10.931H9.21503V9.52156H10.272V8.94896C10.272 7.97995 10.9767 7.14307 11.8575 7.14307H13.0026V8.55254H11.8575C11.7254 8.55254 11.5933 8.68468 11.5933 8.94896V9.52156H13.0026V10.931H11.5933V14.1464H13.0907C13.8394 14.1464 14.5 13.4857 14.5 12.7369V7.05498Z" fill="white"/>
</svg>
