<svg width="1197" height="801" viewBox="0 0 1197 801" fill="none" xmlns="http://www.w3.org/2000/svg">
<path d="M27.5333 280.425C12.3271 280.425 0 268.098 0 252.892L0 28.8254C0 13.6192 12.3271 1.29211 27.5333 1.29211C42.7395 1.29211 55.0666 13.6192 55.0666 28.8254L55.0666 252.892C55.0666 268.098 42.7395 280.425 27.5333 280.425Z" fill="#FEFFFF"/>
<path d="M21.2033 245.299C20.9233 245.539 20.6533 245.859 20.3933 246.259C20.1333 246.659 19.9033 247.109 19.7033 247.609C19.4833 248.109 19.3133 248.659 19.1933 249.259C19.0533 249.839 18.9833 250.449 18.9833 251.089C18.9833 252.729 19.2933 253.939 19.9133 254.719C20.5333 255.499 21.3833 255.889 22.4633 255.889C23.2233 255.889 23.8233 255.689 24.2633 255.289C24.7033 254.889 25.0633 254.279 25.3433 253.459C25.6233 252.619 25.9133 251.559 26.2133 250.279C26.5333 248.799 26.9233 247.519 27.3833 246.439C27.8433 245.359 28.4633 244.529 29.2433 243.949C30.0033 243.369 31.0233 243.079 32.3033 243.079C33.3233 243.079 34.2133 243.279 34.9733 243.679C35.7133 244.059 36.3333 244.599 36.8333 245.299C37.3133 245.999 37.6733 246.819 37.9133 247.759C38.1333 248.699 38.2433 249.719 38.2433 250.819C38.2433 251.899 38.1333 252.959 37.9133 253.999C37.6733 255.019 37.3333 255.989 36.8933 256.909C36.4533 257.829 35.9033 258.689 35.2433 259.489L32.9633 258.199C33.3033 257.879 33.6433 257.469 33.9833 256.969C34.3033 256.449 34.6033 255.869 34.8833 255.229C35.1633 254.569 35.3933 253.859 35.5733 253.099C35.7333 252.339 35.8133 251.559 35.8133 250.759C35.8133 249.239 35.5433 248.059 35.0033 247.219C34.4433 246.379 33.6333 245.959 32.5733 245.959C31.7733 245.959 31.1333 246.199 30.6533 246.679C30.1733 247.139 29.7733 247.829 29.4533 248.749C29.1333 249.669 28.8133 250.789 28.4933 252.109C28.1333 253.549 27.7433 254.759 27.3233 255.739C26.8833 256.719 26.3133 257.459 25.6133 257.959C24.9133 258.439 24.0033 258.679 22.8833 258.679C21.5233 258.679 20.3733 258.349 19.4333 257.689C18.4933 257.029 17.7833 256.119 17.3033 254.959C16.8233 253.799 16.5833 252.489 16.5833 251.029C16.5833 250.069 16.6833 249.179 16.8833 248.359C17.0833 247.519 17.3633 246.739 17.7233 246.019C18.0833 245.299 18.5133 244.639 19.0133 244.039L21.2033 245.299ZM38.3333 233.107C38.3333 234.287 38.1233 235.357 37.7033 236.317C37.2633 237.277 36.6733 238.107 35.9333 238.807C35.1733 239.507 34.3033 240.047 33.3233 240.427C32.3433 240.807 31.3133 240.997 30.2333 240.997C29.1333 240.997 28.0933 240.807 27.1133 240.427C26.1333 240.047 25.2733 239.507 24.5333 238.807C23.7733 238.107 23.1833 237.277 22.7633 236.317C22.3233 235.337 22.1033 234.267 22.1033 233.107C22.1033 231.927 22.3233 230.857 22.7633 229.897C23.1833 228.937 23.7733 228.107 24.5333 227.407C25.2733 226.687 26.1333 226.137 27.1133 225.757C28.0933 225.377 29.1333 225.187 30.2333 225.187C31.3133 225.187 32.3433 225.377 33.3233 225.757C34.3033 226.137 35.1733 226.677 35.9333 227.377C36.6733 228.077 37.2633 228.917 37.7033 229.897C38.1233 230.857 38.3333 231.927 38.3333 233.107ZM30.2633 238.297C31.3433 238.297 32.3233 238.067 33.2033 237.607C34.0833 237.127 34.7833 236.497 35.3033 235.717C35.8033 234.937 36.0533 234.067 36.0533 233.107C36.0533 232.147 35.7933 231.277 35.2733 230.497C34.7533 229.697 34.0533 229.067 33.1733 228.607C32.2733 228.127 31.2833 227.887 30.2033 227.887C29.1233 227.887 28.1433 228.127 27.2633 228.607C26.3833 229.067 25.6833 229.697 25.1633 230.497C24.6433 231.277 24.3833 232.147 24.3833 233.107C24.3833 234.067 24.6533 234.937 25.1933 235.717C25.7133 236.497 26.4133 237.127 27.2933 237.607C28.1733 238.067 29.1633 238.297 30.2633 238.297ZM38.3333 215.058C38.3333 216.238 38.1233 217.318 37.7033 218.298C37.2633 219.258 36.6633 220.098 35.9033 220.818C35.1433 221.518 34.2733 222.068 33.2933 222.468C32.3133 222.848 31.2733 223.038 30.1733 223.038C28.6933 223.038 27.3433 222.708 26.1233 222.048C24.9033 221.388 23.9333 220.458 23.2133 219.258C22.4733 218.058 22.1033 216.668 22.1033 215.088C22.1033 213.548 22.4533 212.208 23.1533 211.068C23.8333 209.908 24.7533 209.048 25.9133 208.488L26.7233 211.068C25.9833 211.468 25.4133 212.028 25.0133 212.748C24.5933 213.468 24.3833 214.268 24.3833 215.148C24.3833 216.108 24.6333 216.988 25.1333 217.788C25.6333 218.568 26.3233 219.188 27.2033 219.648C28.0633 220.108 29.0533 220.338 30.1733 220.338C31.2733 220.338 32.2733 220.108 33.1733 219.648C34.0533 219.168 34.7533 218.538 35.2733 217.758C35.7933 216.958 36.0533 216.078 36.0533 215.118C36.0533 214.498 35.9433 213.908 35.7233 213.348C35.5033 212.768 35.2133 212.268 34.8533 211.848C34.4733 211.408 34.0633 211.108 33.6233 210.948L34.4033 208.368C35.1633 208.688 35.8433 209.178 36.4433 209.838C37.0233 210.478 37.4833 211.248 37.8233 212.148C38.1633 213.028 38.3333 213.998 38.3333 215.058ZM38.0333 205.377H22.3733V202.737H38.0333L38.0333 205.377ZM19.4333 205.377H16.1333V202.737H19.4333V205.377ZM33.5033 199.693C32.5033 199.693 31.6433 199.413 30.9233 198.853C30.1833 198.273 29.6133 197.483 29.2133 196.483C28.8133 195.483 28.6133 194.323 28.6133 193.003C28.6133 192.303 28.6733 191.563 28.7933 190.783C28.8933 190.003 29.0533 189.313 29.2733 188.713H28.1333C26.9333 188.713 25.9933 189.073 25.3133 189.793C24.6133 190.513 24.2633 191.533 24.2633 192.853C24.2633 193.713 24.4233 194.543 24.7433 195.343C25.0433 196.123 25.4833 196.953 26.0633 197.833L24.2033 198.793C23.5033 197.773 22.9833 196.753 22.6433 195.733C22.2833 194.713 22.1033 193.653 22.1033 192.553C22.1033 190.553 22.6633 188.973 23.7833 187.813C24.8833 186.653 26.4233 186.073 28.4033 186.073H35.0333C35.3533 186.073 35.5933 186.013 35.7533 185.893C35.8933 185.753 35.9733 185.533 35.9933 185.233H38.0333C38.0733 185.493 38.1033 185.723 38.1233 185.923C38.1433 186.103 38.1533 186.253 38.1533 186.373C38.1533 186.993 37.9833 187.463 37.6433 187.783C37.3033 188.083 36.9433 188.253 36.5633 188.293L35.5733 188.353C36.4533 189.033 37.1333 189.923 37.6133 191.023C38.0933 192.123 38.3333 193.213 38.3333 194.293C38.3333 195.333 38.1233 196.263 37.7033 197.083C37.2633 197.903 36.6833 198.543 35.9633 199.003C35.2233 199.463 34.4033 199.693 33.5033 199.693ZM34.6133 189.493C34.3333 189.253 34.0533 189.063 33.7733 188.923C33.4733 188.783 33.2233 188.713 33.0233 188.713H31.0733C30.8333 189.333 30.6533 189.983 30.5333 190.663C30.3933 191.343 30.3233 192.013 30.3233 192.673C30.3233 194.013 30.5933 195.103 31.1333 195.943C31.6533 196.763 32.3733 197.173 33.2933 197.173C33.7933 197.173 34.2833 197.043 34.7633 196.783C35.2233 196.503 35.6033 196.103 35.9033 195.583C36.2033 195.043 36.3533 194.383 36.3533 193.603C36.3533 192.783 36.1933 192.003 35.8733 191.263C35.5333 190.523 35.1133 189.933 34.6133 189.493ZM16.1333 181.792V179.152H33.9833C34.8433 179.152 35.3733 179.032 35.5733 178.792C35.7733 178.552 35.8733 178.262 35.8733 177.922C35.8733 177.502 35.8333 177.102 35.7533 176.722C35.6533 176.342 35.5533 176.022 35.4533 175.762L37.6133 175.342C37.7933 175.782 37.9433 176.302 38.0633 176.902C38.1833 177.502 38.2433 178.032 38.2433 178.492C38.2433 179.512 37.9533 180.322 37.3733 180.922C36.7933 181.502 35.9833 181.792 34.9433 181.792H16.1333ZM21.7133 163.468H38.0333V166.168H16.7333V163.888L33.3833 150.868H16.7633V148.168H38.0333V150.628L21.7133 163.468ZM38.3333 136.836C38.3333 138.016 38.1233 139.096 37.7033 140.076C37.2633 141.036 36.6733 141.876 35.9333 142.596C35.1733 143.296 34.3033 143.846 33.3233 144.246C32.3433 144.626 31.3033 144.816 30.2033 144.816C28.7233 144.816 27.3733 144.476 26.1533 143.796C24.9333 143.116 23.9533 142.176 23.2133 140.976C22.4733 139.756 22.1033 138.366 22.1033 136.806C22.1033 135.226 22.4833 133.856 23.2433 132.696C23.9833 131.516 24.9633 130.606 26.1833 129.966C27.3833 129.306 28.6833 128.976 30.0833 128.976C30.2833 128.976 30.4833 128.986 30.6833 129.006C30.8633 129.006 31.0033 129.016 31.1033 129.036L31.1033 142.026C32.1233 141.946 33.0333 141.666 33.8333 141.186C34.6133 140.686 35.2333 140.046 35.6933 139.266C36.1333 138.486 36.3533 137.646 36.3533 136.746C36.3533 135.786 36.1133 134.886 35.6333 134.046C35.1533 133.186 34.5233 132.596 33.7433 132.276L34.3733 129.996C35.1333 130.336 35.8133 130.846 36.4133 131.526C37.0133 132.186 37.4833 132.976 37.8233 133.896C38.1633 134.796 38.3333 135.776 38.3333 136.836ZM29.2733 142.116L29.2733 131.436C28.2533 131.516 27.3533 131.806 26.5733 132.306C25.7933 132.806 25.1833 133.446 24.7433 134.226C24.3033 135.006 24.0833 135.866 24.0833 136.806C24.0833 137.726 24.3033 138.576 24.7433 139.356C25.1833 140.136 25.7933 140.776 26.5733 141.276C27.3533 141.756 28.2533 142.036 29.2733 142.116ZM37.2533 118.088C37.3533 118.308 37.4833 118.608 37.6433 118.988C37.8033 119.368 37.9433 119.808 38.0633 120.308C38.1833 120.808 38.2433 121.338 38.2433 121.898C38.2433 122.538 38.1333 123.128 37.9133 123.668C37.6733 124.208 37.3133 124.638 36.8333 124.958C36.3333 125.278 35.7133 125.438 34.9733 125.438H24.4433V127.568H22.3733V125.438H17.1533V122.798H22.3733V119.288H24.4433V122.798H34.1633C34.7233 122.758 35.1433 122.568 35.4233 122.228C35.6833 121.888 35.8133 121.488 35.8133 121.028C35.8133 120.508 35.7233 120.028 35.5433 119.588C35.3633 119.148 35.2333 118.858 35.1533 118.718L37.2533 118.088ZM22.3733 96.0208V93.4708L38.0333 100.131V102.441L30.6533 105.471L38.0333 108.471V110.781L22.3733 117.441V114.921L35.4233 109.521L29.0033 107.001L22.4033 109.641V107.331L27.3833 105.471L22.4033 103.611V101.301L29.0033 103.911L35.4233 101.391L22.3733 96.0208ZM38.3333 84.6894C38.3333 85.8694 38.1233 86.9394 37.7033 87.8994C37.2633 88.8594 36.6733 89.6894 35.9333 90.3894C35.1733 91.0894 34.3033 91.6294 33.3233 92.0094C32.3433 92.3894 31.3133 92.5794 30.2333 92.5794C29.1333 92.5794 28.0933 92.3894 27.1133 92.0094C26.1333 91.6294 25.2733 91.0894 24.5333 90.3894C23.7733 89.6894 23.1833 88.8594 22.7633 87.8994C22.3233 86.9194 22.1033 85.8494 22.1033 84.6894C22.1033 83.5094 22.3233 82.4394 22.7633 81.4794C23.1833 80.5194 23.7733 79.6894 24.5333 78.9894C25.2733 78.2694 26.1333 77.7194 27.1133 77.3394C28.0933 76.9594 29.1333 76.7694 30.2333 76.7694C31.3133 76.7694 32.3433 76.9594 33.3233 77.3394C34.3033 77.7194 35.1733 78.2594 35.9333 78.9594C36.6733 79.6594 37.2633 80.4994 37.7033 81.4794C38.1233 82.4394 38.3333 83.5094 38.3333 84.6894ZM30.2633 89.8794C31.3433 89.8794 32.3233 89.6494 33.2033 89.1894C34.0833 88.7094 34.7833 88.0794 35.3033 87.2994C35.8033 86.5194 36.0533 85.6494 36.0533 84.6894C36.0533 83.7294 35.7933 82.8594 35.2733 82.0794C34.7533 81.2794 34.0533 80.6494 33.1733 80.1894C32.2733 79.7094 31.2833 79.4694 30.2033 79.4694C29.1233 79.4694 28.1433 79.7094 27.2633 80.1894C26.3833 80.6494 25.6833 81.2794 25.1633 82.0794C24.6433 82.8594 24.3833 83.7294 24.3833 84.6894C24.3833 85.6494 24.6533 86.5194 25.1933 87.2994C25.7133 88.0794 26.4133 88.7094 27.2933 89.1894C28.1733 89.6494 29.1633 89.8794 30.2633 89.8794ZM24.6833 65.2905C24.7033 66.6105 25.0433 67.7805 25.7033 68.8005C26.3433 69.8005 27.2333 70.5105 28.3733 70.9305H38.0333V73.5705H22.3733V71.1105H26.0033C24.9233 70.5705 24.0533 69.8605 23.3933 68.9805C22.7133 68.0805 22.3333 67.1405 22.2533 66.1605C22.2533 65.9605 22.2533 65.7905 22.2533 65.6505C22.2533 65.5105 22.2633 65.3905 22.2833 65.2905H24.6833ZM38.0333 51.632L30.4133 57.062L33.2033 60.032H38.0333V62.672H16.1333V60.032H30.4433L22.4033 51.932V49.082L28.8833 55.322L38.0333 48.782L38.0333 51.632ZM16.7333 32.9498V30.6698L38.0333 21.9698V24.8498L31.7933 27.3698V36.3098L38.0333 38.7998V41.6798L16.7333 32.9498ZM29.6933 27.9698L19.8533 31.8098L29.6933 35.7698V27.9698Z" fill="#001018"/>
<path d="M301.049 282.425C285.843 282.425 273.516 270.098 273.516 254.892L273.516 29.8254C273.516 14.6192 285.843 2.29211 301.049 2.29211C316.255 2.29211 328.582 14.6192 328.582 29.8254L328.582 254.892C328.582 270.098 316.255 282.425 301.049 282.425Z" fill="#FEFFFF"/>
<path d="M294.719 247.299C294.439 247.539 294.169 247.859 293.909 248.259C293.649 248.659 293.419 249.109 293.219 249.609C292.999 250.109 292.829 250.659 292.709 251.259C292.569 251.839 292.499 252.449 292.499 253.089C292.499 254.729 292.809 255.939 293.429 256.719C294.049 257.499 294.899 257.889 295.979 257.889C296.739 257.889 297.339 257.689 297.779 257.289C298.219 256.889 298.579 256.279 298.859 255.459C299.139 254.619 299.429 253.559 299.729 252.279C300.049 250.799 300.439 249.519 300.899 248.439C301.359 247.359 301.979 246.529 302.759 245.949C303.519 245.369 304.539 245.079 305.819 245.079C306.839 245.079 307.729 245.279 308.489 245.679C309.229 246.059 309.849 246.599 310.349 247.299C310.829 247.999 311.189 248.819 311.429 249.759C311.649 250.699 311.759 251.719 311.759 252.819C311.759 253.899 311.649 254.959 311.429 255.999C311.189 257.019 310.849 257.989 310.409 258.909C309.969 259.829 309.419 260.689 308.759 261.489L306.479 260.199C306.819 259.879 307.159 259.469 307.499 258.969C307.819 258.449 308.119 257.869 308.399 257.229C308.679 256.569 308.909 255.859 309.089 255.099C309.249 254.339 309.329 253.559 309.329 252.759C309.329 251.239 309.059 250.059 308.519 249.219C307.959 248.379 307.149 247.959 306.089 247.959C305.289 247.959 304.649 248.199 304.169 248.679C303.689 249.139 303.289 249.829 302.969 250.749C302.649 251.669 302.329 252.789 302.009 254.109C301.649 255.549 301.259 256.759 300.839 257.739C300.399 258.719 299.829 259.459 299.129 259.959C298.429 260.439 297.519 260.679 296.399 260.679C295.039 260.679 293.889 260.349 292.949 259.689C292.009 259.029 291.299 258.119 290.819 256.959C290.339 255.799 290.099 254.489 290.099 253.029C290.099 252.069 290.199 251.179 290.399 250.359C290.599 249.519 290.879 248.739 291.239 248.019C291.599 247.299 292.029 246.639 292.529 246.039L294.719 247.299ZM311.849 235.107C311.849 236.287 311.639 237.357 311.219 238.317C310.779 239.277 310.189 240.107 309.449 240.807C308.689 241.507 307.819 242.047 306.839 242.427C305.859 242.807 304.829 242.997 303.749 242.997C302.649 242.997 301.609 242.807 300.629 242.427C299.649 242.047 298.789 241.507 298.049 240.807C297.289 240.107 296.699 239.277 296.279 238.317C295.839 237.337 295.619 236.267 295.619 235.107C295.619 233.927 295.839 232.857 296.279 231.897C296.699 230.937 297.289 230.107 298.049 229.407C298.789 228.687 299.649 228.137 300.629 227.757C301.609 227.377 302.649 227.187 303.749 227.187C304.829 227.187 305.859 227.377 306.839 227.757C307.819 228.137 308.689 228.677 309.449 229.377C310.189 230.077 310.779 230.917 311.219 231.897C311.639 232.857 311.849 233.927 311.849 235.107ZM303.779 240.297C304.859 240.297 305.839 240.067 306.719 239.607C307.599 239.127 308.299 238.497 308.819 237.717C309.319 236.937 309.569 236.067 309.569 235.107C309.569 234.147 309.309 233.277 308.789 232.497C308.269 231.697 307.569 231.067 306.689 230.607C305.789 230.127 304.799 229.887 303.719 229.887C302.639 229.887 301.659 230.127 300.779 230.607C299.899 231.067 299.199 231.697 298.679 232.497C298.159 233.277 297.899 234.147 297.899 235.107C297.899 236.067 298.169 236.937 298.709 237.717C299.229 238.497 299.929 239.127 300.809 239.607C301.689 240.067 302.679 240.297 303.779 240.297ZM311.849 217.058C311.849 218.238 311.639 219.318 311.219 220.298C310.779 221.258 310.179 222.098 309.419 222.818C308.659 223.518 307.789 224.068 306.809 224.468C305.829 224.848 304.789 225.038 303.689 225.038C302.209 225.038 300.859 224.708 299.639 224.048C298.419 223.388 297.449 222.458 296.729 221.258C295.989 220.058 295.619 218.668 295.619 217.088C295.619 215.548 295.969 214.208 296.669 213.068C297.349 211.908 298.269 211.048 299.429 210.488L300.239 213.068C299.499 213.468 298.929 214.028 298.529 214.748C298.109 215.468 297.899 216.268 297.899 217.148C297.899 218.108 298.149 218.988 298.649 219.788C299.149 220.568 299.839 221.188 300.719 221.648C301.579 222.108 302.569 222.338 303.689 222.338C304.789 222.338 305.789 222.108 306.689 221.648C307.569 221.168 308.269 220.538 308.789 219.758C309.309 218.958 309.569 218.078 309.569 217.118C309.569 216.498 309.459 215.908 309.239 215.348C309.019 214.768 308.729 214.268 308.369 213.848C307.989 213.408 307.579 213.108 307.139 212.948L307.919 210.368C308.679 210.688 309.359 211.178 309.959 211.838C310.539 212.478 310.999 213.248 311.339 214.148C311.679 215.028 311.849 215.998 311.849 217.058ZM311.549 207.377H295.889V204.737H311.549V207.377ZM292.949 207.377H289.649V204.737H292.949V207.377ZM307.019 201.693C306.019 201.693 305.159 201.413 304.439 200.853C303.699 200.273 303.129 199.483 302.729 198.483C302.329 197.483 302.129 196.323 302.129 195.003C302.129 194.303 302.189 193.563 302.309 192.783C302.409 192.003 302.569 191.313 302.789 190.713H301.649C300.449 190.713 299.509 191.073 298.829 191.793C298.129 192.513 297.779 193.533 297.779 194.853C297.779 195.713 297.939 196.543 298.259 197.343C298.559 198.123 298.999 198.953 299.579 199.833L297.719 200.793C297.019 199.773 296.499 198.753 296.159 197.733C295.799 196.713 295.619 195.653 295.619 194.553C295.619 192.553 296.179 190.973 297.299 189.813C298.399 188.653 299.939 188.073 301.919 188.073H308.549C308.869 188.073 309.109 188.013 309.269 187.893C309.409 187.753 309.489 187.533 309.509 187.233H311.549C311.589 187.493 311.619 187.723 311.639 187.923C311.659 188.103 311.669 188.253 311.669 188.373C311.669 188.993 311.499 189.463 311.159 189.783C310.819 190.083 310.459 190.253 310.079 190.293L309.089 190.353C309.969 191.033 310.649 191.923 311.129 193.023C311.609 194.123 311.849 195.213 311.849 196.293C311.849 197.333 311.639 198.263 311.219 199.083C310.779 199.903 310.199 200.543 309.479 201.003C308.739 201.463 307.919 201.693 307.019 201.693ZM308.129 191.493C307.849 191.253 307.569 191.063 307.289 190.923C306.989 190.783 306.739 190.713 306.539 190.713H304.589C304.349 191.333 304.169 191.983 304.049 192.663C303.909 193.343 303.839 194.013 303.839 194.673C303.839 196.013 304.109 197.103 304.649 197.943C305.169 198.763 305.889 199.173 306.809 199.173C307.309 199.173 307.799 199.043 308.279 198.783C308.739 198.503 309.119 198.103 309.419 197.583C309.719 197.043 309.869 196.383 309.869 195.603C309.869 194.783 309.709 194.003 309.389 193.263C309.049 192.523 308.629 191.933 308.129 191.493ZM289.649 183.792V181.152H307.499C308.359 181.152 308.889 181.032 309.089 180.792C309.289 180.552 309.389 180.262 309.389 179.922C309.389 179.502 309.349 179.102 309.269 178.722C309.169 178.342 309.069 178.022 308.969 177.762L311.129 177.342C311.309 177.782 311.459 178.302 311.579 178.902C311.699 179.502 311.759 180.032 311.759 180.492C311.759 181.512 311.469 182.322 310.889 182.922C310.309 183.502 309.499 183.792 308.459 183.792H289.649ZM295.229 165.468H311.549V168.168H290.249V165.888L306.899 152.868H290.279V150.168H311.549V152.628L295.229 165.468ZM311.849 138.836C311.849 140.016 311.639 141.096 311.219 142.076C310.779 143.036 310.189 143.876 309.449 144.596C308.689 145.296 307.819 145.846 306.839 146.246C305.859 146.626 304.819 146.816 303.719 146.816C302.239 146.816 300.889 146.476 299.669 145.796C298.449 145.116 297.469 144.176 296.729 142.976C295.989 141.756 295.619 140.366 295.619 138.806C295.619 137.226 295.999 135.856 296.759 134.696C297.499 133.516 298.479 132.606 299.699 131.966C300.899 131.306 302.199 130.976 303.599 130.976C303.799 130.976 303.999 130.986 304.199 131.006C304.379 131.006 304.519 131.016 304.619 131.036V144.026C305.639 143.946 306.549 143.666 307.349 143.186C308.129 142.686 308.749 142.046 309.209 141.266C309.649 140.486 309.869 139.646 309.869 138.746C309.869 137.786 309.629 136.886 309.149 136.046C308.669 135.186 308.039 134.596 307.259 134.276L307.889 131.996C308.649 132.336 309.329 132.846 309.929 133.526C310.529 134.186 310.999 134.976 311.339 135.896C311.679 136.796 311.849 137.776 311.849 138.836ZM302.789 144.116V133.436C301.769 133.516 300.869 133.806 300.089 134.306C299.309 134.806 298.699 135.446 298.259 136.226C297.819 137.006 297.599 137.866 297.599 138.806C297.599 139.726 297.819 140.576 298.259 141.356C298.699 142.136 299.309 142.776 300.089 143.276C300.869 143.756 301.769 144.036 302.789 144.116ZM310.769 120.088C310.869 120.308 310.999 120.608 311.159 120.988C311.319 121.368 311.459 121.808 311.579 122.308C311.699 122.808 311.759 123.338 311.759 123.898C311.759 124.538 311.649 125.128 311.429 125.668C311.189 126.208 310.829 126.638 310.349 126.958C309.849 127.278 309.229 127.438 308.489 127.438H297.959V129.568H295.889V127.438H290.669V124.798H295.889V121.288H297.959V124.798H307.679C308.239 124.758 308.659 124.568 308.939 124.228C309.199 123.888 309.329 123.488 309.329 123.028C309.329 122.508 309.239 122.028 309.059 121.588C308.879 121.148 308.749 120.858 308.669 120.718L310.769 120.088ZM295.889 98.0208V95.4708L311.549 102.131V104.441L304.169 107.471L311.549 110.471V112.781L295.889 119.441V116.921L308.939 111.521L302.519 109.001L295.919 111.641V109.331L300.899 107.471L295.919 105.611V103.301L302.519 105.911L308.939 103.391L295.889 98.0208ZM311.849 86.6894C311.849 87.8694 311.639 88.9394 311.219 89.8994C310.779 90.8594 310.189 91.6894 309.449 92.3894C308.689 93.0894 307.819 93.6294 306.839 94.0094C305.859 94.3894 304.829 94.5794 303.749 94.5794C302.649 94.5794 301.609 94.3894 300.629 94.0094C299.649 93.6294 298.789 93.0894 298.049 92.3894C297.289 91.6894 296.699 90.8594 296.279 89.8994C295.839 88.9194 295.619 87.8494 295.619 86.6894C295.619 85.5094 295.839 84.4394 296.279 83.4794C296.699 82.5194 297.289 81.6894 298.049 80.9894C298.789 80.2694 299.649 79.7194 300.629 79.3394C301.609 78.9594 302.649 78.7694 303.749 78.7694C304.829 78.7694 305.859 78.9594 306.839 79.3394C307.819 79.7194 308.689 80.2594 309.449 80.9594C310.189 81.6594 310.779 82.4994 311.219 83.4794C311.639 84.4394 311.849 85.5094 311.849 86.6894ZM303.779 91.8794C304.859 91.8794 305.839 91.6494 306.719 91.1894C307.599 90.7094 308.299 90.0794 308.819 89.2994C309.319 88.5194 309.569 87.6494 309.569 86.6894C309.569 85.7294 309.309 84.8594 308.789 84.0794C308.269 83.2794 307.569 82.6494 306.689 82.1894C305.789 81.7094 304.799 81.4694 303.719 81.4694C302.639 81.4694 301.659 81.7094 300.779 82.1894C299.899 82.6494 299.199 83.2794 298.679 84.0794C298.159 84.8594 297.899 85.7294 297.899 86.6894C297.899 87.6494 298.169 88.5194 298.709 89.2994C299.229 90.0794 299.929 90.7094 300.809 91.1894C301.689 91.6494 302.679 91.8794 303.779 91.8794ZM298.199 67.2905C298.219 68.6105 298.559 69.7805 299.219 70.8005C299.859 71.8005 300.749 72.5105 301.889 72.9305H311.549L311.549 75.5705H295.889V73.1105H299.519C298.439 72.5705 297.569 71.8605 296.909 70.9805C296.229 70.0805 295.849 69.1405 295.769 68.1605C295.769 67.9605 295.769 67.7905 295.769 67.6505C295.769 67.5105 295.779 67.3905 295.799 67.2905H298.199ZM311.549 53.632L303.929 59.062L306.719 62.032H311.549V64.672H289.649V62.032H303.959L295.919 53.932V51.082L302.399 57.322L311.549 50.782V53.632ZM306.059 24.1423C307.159 24.1423 308.119 24.4223 308.939 24.9823C309.759 25.5423 310.399 26.3023 310.859 27.2623C311.319 28.2023 311.549 29.2423 311.549 30.3823V40.4923H290.249V29.9023C290.249 28.9023 290.519 28.0423 291.059 27.3223C291.579 26.5823 292.259 26.0223 293.099 25.6423C293.919 25.2423 294.779 25.0423 295.679 25.0423C296.719 25.0423 297.699 25.3123 298.619 25.8523C299.519 26.3723 300.189 27.1223 300.629 28.1023C300.989 26.8823 301.659 25.9223 302.639 25.2223C303.599 24.5023 304.739 24.1423 306.059 24.1423ZM305.579 26.8723C304.919 26.8723 304.309 27.0223 303.749 27.3223C303.189 27.6023 302.739 27.9923 302.399 28.4923C302.059 28.9723 301.889 29.5323 301.889 30.1723V37.7923H309.209V30.3823C309.209 29.7223 309.039 29.1323 308.699 28.6123C308.359 28.0723 307.919 27.6523 307.379 27.3523C306.819 27.0323 306.219 26.8723 305.579 26.8723ZM292.589 37.7923H299.699V31.0123C299.699 30.3723 299.539 29.8123 299.219 29.3323C298.899 28.8323 298.469 28.4423 297.929 28.1623C297.389 27.8623 296.799 27.7123 296.159 27.7123C295.479 27.7123 294.879 27.8523 294.359 28.1323C293.819 28.3923 293.389 28.7623 293.069 29.2423C292.749 29.7023 292.589 30.2323 292.589 30.8323V37.7923Z" fill="#001018"/>
<path d="M566.049 281.425C550.843 281.425 538.516 269.098 538.516 253.892V28.8254C538.516 13.6192 550.843 1.29211 566.049 1.29211C581.255 1.29211 593.582 13.6192 593.582 28.8254V253.892C593.582 269.098 581.255 281.425 566.049 281.425Z" fill="#FEFFFF"/>
<path d="M559.719 246.299C559.439 246.539 559.169 246.859 558.909 247.259C558.649 247.659 558.419 248.109 558.219 248.609C557.999 249.109 557.829 249.659 557.709 250.259C557.569 250.839 557.499 251.449 557.499 252.089C557.499 253.729 557.809 254.939 558.429 255.719C559.049 256.499 559.899 256.889 560.979 256.889C561.739 256.889 562.339 256.689 562.779 256.289C563.219 255.889 563.579 255.279 563.859 254.459C564.139 253.619 564.429 252.559 564.729 251.279C565.049 249.799 565.439 248.519 565.899 247.439C566.359 246.359 566.979 245.529 567.759 244.949C568.519 244.369 569.539 244.079 570.819 244.079C571.839 244.079 572.729 244.279 573.489 244.679C574.229 245.059 574.849 245.599 575.349 246.299C575.829 246.999 576.189 247.819 576.429 248.759C576.649 249.699 576.759 250.719 576.759 251.819C576.759 252.899 576.649 253.959 576.429 254.999C576.189 256.019 575.849 256.989 575.409 257.909C574.969 258.829 574.419 259.689 573.759 260.489L571.479 259.199C571.819 258.879 572.159 258.469 572.499 257.969C572.819 257.449 573.119 256.869 573.399 256.229C573.679 255.569 573.909 254.859 574.089 254.099C574.249 253.339 574.329 252.559 574.329 251.759C574.329 250.239 574.059 249.059 573.519 248.219C572.959 247.379 572.149 246.959 571.089 246.959C570.289 246.959 569.649 247.199 569.169 247.679C568.689 248.139 568.289 248.829 567.969 249.749C567.649 250.669 567.329 251.789 567.009 253.109C566.649 254.549 566.259 255.759 565.839 256.739C565.399 257.719 564.829 258.459 564.129 258.959C563.429 259.439 562.519 259.679 561.399 259.679C560.039 259.679 558.889 259.349 557.949 258.689C557.009 258.029 556.299 257.119 555.819 255.959C555.339 254.799 555.099 253.489 555.099 252.029C555.099 251.069 555.199 250.179 555.399 249.359C555.599 248.519 555.879 247.739 556.239 247.019C556.599 246.299 557.029 245.639 557.529 245.039L559.719 246.299ZM576.849 234.107C576.849 235.287 576.639 236.357 576.219 237.317C575.779 238.277 575.189 239.107 574.449 239.807C573.689 240.507 572.819 241.047 571.839 241.427C570.859 241.807 569.829 241.997 568.749 241.997C567.649 241.997 566.609 241.807 565.629 241.427C564.649 241.047 563.789 240.507 563.049 239.807C562.289 239.107 561.699 238.277 561.279 237.317C560.839 236.337 560.619 235.267 560.619 234.107C560.619 232.927 560.839 231.857 561.279 230.897C561.699 229.937 562.289 229.107 563.049 228.407C563.789 227.687 564.649 227.137 565.629 226.757C566.609 226.377 567.649 226.187 568.749 226.187C569.829 226.187 570.859 226.377 571.839 226.757C572.819 227.137 573.689 227.677 574.449 228.377C575.189 229.077 575.779 229.917 576.219 230.897C576.639 231.857 576.849 232.927 576.849 234.107ZM568.779 239.297C569.859 239.297 570.839 239.067 571.719 238.607C572.599 238.127 573.299 237.497 573.819 236.717C574.319 235.937 574.569 235.067 574.569 234.107C574.569 233.147 574.309 232.277 573.789 231.497C573.269 230.697 572.569 230.067 571.689 229.607C570.789 229.127 569.799 228.887 568.719 228.887C567.639 228.887 566.659 229.127 565.779 229.607C564.899 230.067 564.199 230.697 563.679 231.497C563.159 232.277 562.899 233.147 562.899 234.107C562.899 235.067 563.169 235.937 563.709 236.717C564.229 237.497 564.929 238.127 565.809 238.607C566.689 239.067 567.679 239.297 568.779 239.297ZM576.849 216.058C576.849 217.238 576.639 218.318 576.219 219.298C575.779 220.258 575.179 221.098 574.419 221.818C573.659 222.518 572.789 223.068 571.809 223.468C570.829 223.848 569.789 224.038 568.689 224.038C567.209 224.038 565.859 223.708 564.639 223.048C563.419 222.388 562.449 221.458 561.729 220.258C560.989 219.058 560.619 217.668 560.619 216.088C560.619 214.548 560.969 213.208 561.669 212.068C562.349 210.908 563.269 210.048 564.429 209.488L565.239 212.068C564.499 212.468 563.929 213.028 563.529 213.748C563.109 214.468 562.899 215.268 562.899 216.148C562.899 217.108 563.149 217.988 563.649 218.788C564.149 219.568 564.839 220.188 565.719 220.648C566.579 221.108 567.569 221.338 568.689 221.338C569.789 221.338 570.789 221.108 571.689 220.648C572.569 220.168 573.269 219.538 573.789 218.758C574.309 217.958 574.569 217.078 574.569 216.118C574.569 215.498 574.459 214.908 574.239 214.348C574.019 213.768 573.729 213.268 573.369 212.848C572.989 212.408 572.579 212.108 572.139 211.948L572.919 209.368C573.679 209.688 574.359 210.178 574.959 210.838C575.539 211.478 575.999 212.248 576.339 213.148C576.679 214.028 576.849 214.998 576.849 216.058ZM576.549 206.377H560.889V203.737H576.549V206.377ZM557.949 206.377H554.649V203.737H557.949V206.377ZM572.019 200.693C571.019 200.693 570.159 200.413 569.439 199.853C568.699 199.273 568.129 198.483 567.729 197.483C567.329 196.483 567.129 195.323 567.129 194.003C567.129 193.303 567.189 192.563 567.309 191.783C567.409 191.003 567.569 190.313 567.789 189.713H566.649C565.449 189.713 564.509 190.073 563.829 190.793C563.129 191.513 562.779 192.533 562.779 193.853C562.779 194.713 562.939 195.543 563.259 196.343C563.559 197.123 563.999 197.953 564.579 198.833L562.719 199.793C562.019 198.773 561.499 197.753 561.159 196.733C560.799 195.713 560.619 194.653 560.619 193.553C560.619 191.553 561.179 189.973 562.299 188.813C563.399 187.653 564.939 187.073 566.919 187.073H573.549C573.869 187.073 574.109 187.013 574.269 186.893C574.409 186.753 574.489 186.533 574.509 186.233H576.549C576.589 186.493 576.619 186.723 576.639 186.923C576.659 187.103 576.669 187.253 576.669 187.373C576.669 187.993 576.499 188.463 576.159 188.783C575.819 189.083 575.459 189.253 575.079 189.293L574.089 189.353C574.969 190.033 575.649 190.923 576.129 192.023C576.609 193.123 576.849 194.213 576.849 195.293C576.849 196.333 576.639 197.263 576.219 198.083C575.779 198.903 575.199 199.543 574.479 200.003C573.739 200.463 572.919 200.693 572.019 200.693ZM573.129 190.493C572.849 190.253 572.569 190.063 572.289 189.923C571.989 189.783 571.739 189.713 571.539 189.713H569.589C569.349 190.333 569.169 190.983 569.049 191.663C568.909 192.343 568.839 193.013 568.839 193.673C568.839 195.013 569.109 196.103 569.649 196.943C570.169 197.763 570.889 198.173 571.809 198.173C572.309 198.173 572.799 198.043 573.279 197.783C573.739 197.503 574.119 197.103 574.419 196.583C574.719 196.043 574.869 195.383 574.869 194.603C574.869 193.783 574.709 193.003 574.389 192.263C574.049 191.523 573.629 190.933 573.129 190.493ZM554.649 182.792V180.152H572.499C573.359 180.152 573.889 180.032 574.089 179.792C574.289 179.552 574.389 179.262 574.389 178.922C574.389 178.502 574.349 178.102 574.269 177.722C574.169 177.342 574.069 177.022 573.969 176.762L576.129 176.342C576.309 176.782 576.459 177.302 576.579 177.902C576.699 178.502 576.759 179.032 576.759 179.492C576.759 180.512 576.469 181.322 575.889 181.922C575.309 182.502 574.499 182.792 573.459 182.792H554.649ZM560.229 164.468H576.549V167.168H555.249V164.888L571.899 151.868H555.279V149.168H576.549V151.628L560.229 164.468ZM576.849 137.836C576.849 139.016 576.639 140.096 576.219 141.076C575.779 142.036 575.189 142.876 574.449 143.596C573.689 144.296 572.819 144.846 571.839 145.246C570.859 145.626 569.819 145.816 568.719 145.816C567.239 145.816 565.889 145.476 564.669 144.796C563.449 144.116 562.469 143.176 561.729 141.976C560.989 140.756 560.619 139.366 560.619 137.806C560.619 136.226 560.999 134.856 561.759 133.696C562.499 132.516 563.479 131.606 564.699 130.966C565.899 130.306 567.199 129.976 568.599 129.976C568.799 129.976 568.999 129.986 569.199 130.006C569.379 130.006 569.519 130.016 569.619 130.036V143.026C570.639 142.946 571.549 142.666 572.349 142.186C573.129 141.686 573.749 141.046 574.209 140.266C574.649 139.486 574.869 138.646 574.869 137.746C574.869 136.786 574.629 135.886 574.149 135.046C573.669 134.186 573.039 133.596 572.259 133.276L572.889 130.996C573.649 131.336 574.329 131.846 574.929 132.526C575.529 133.186 575.999 133.976 576.339 134.896C576.679 135.796 576.849 136.776 576.849 137.836ZM567.789 143.116V132.436C566.769 132.516 565.869 132.806 565.089 133.306C564.309 133.806 563.699 134.446 563.259 135.226C562.819 136.006 562.599 136.866 562.599 137.806C562.599 138.726 562.819 139.576 563.259 140.356C563.699 141.136 564.309 141.776 565.089 142.276C565.869 142.756 566.769 143.036 567.789 143.116ZM575.769 119.088C575.869 119.308 575.999 119.608 576.159 119.988C576.319 120.368 576.459 120.808 576.579 121.308C576.699 121.808 576.759 122.338 576.759 122.898C576.759 123.538 576.649 124.128 576.429 124.668C576.189 125.208 575.829 125.638 575.349 125.958C574.849 126.278 574.229 126.438 573.489 126.438H562.959V128.568H560.889V126.438H555.669V123.798H560.889V120.288H562.959V123.798H572.679C573.239 123.758 573.659 123.568 573.939 123.228C574.199 122.888 574.329 122.488 574.329 122.028C574.329 121.508 574.239 121.028 574.059 120.588C573.879 120.148 573.749 119.858 573.669 119.718L575.769 119.088ZM560.889 97.0208V94.4708L576.549 101.131V103.441L569.169 106.471L576.549 109.471V111.781L560.889 118.441V115.921L573.939 110.521L567.519 108.001L560.919 110.641V108.331L565.899 106.471L560.919 104.611V102.301L567.519 104.911L573.939 102.391L560.889 97.0208ZM576.849 85.6894C576.849 86.8694 576.639 87.9394 576.219 88.8994C575.779 89.8594 575.189 90.6894 574.449 91.3894C573.689 92.0894 572.819 92.6294 571.839 93.0094C570.859 93.3894 569.829 93.5794 568.749 93.5794C567.649 93.5794 566.609 93.3894 565.629 93.0094C564.649 92.6294 563.789 92.0894 563.049 91.3894C562.289 90.6894 561.699 89.8594 561.279 88.8994C560.839 87.9194 560.619 86.8494 560.619 85.6894C560.619 84.5094 560.839 83.4394 561.279 82.4794C561.699 81.5194 562.289 80.6894 563.049 79.9894C563.789 79.2694 564.649 78.7194 565.629 78.3394C566.609 77.9594 567.649 77.7694 568.749 77.7694C569.829 77.7694 570.859 77.9594 571.839 78.3394C572.819 78.7194 573.689 79.2594 574.449 79.9594C575.189 80.6594 575.779 81.4994 576.219 82.4794C576.639 83.4394 576.849 84.5094 576.849 85.6894ZM568.779 90.8794C569.859 90.8794 570.839 90.6494 571.719 90.1894C572.599 89.7094 573.299 89.0794 573.819 88.2994C574.319 87.5194 574.569 86.6494 574.569 85.6894C574.569 84.7294 574.309 83.8594 573.789 83.0794C573.269 82.2794 572.569 81.6494 571.689 81.1894C570.789 80.7094 569.799 80.4694 568.719 80.4694C567.639 80.4694 566.659 80.7094 565.779 81.1894C564.899 81.6494 564.199 82.2794 563.679 83.0794C563.159 83.8594 562.899 84.7294 562.899 85.6894C562.899 86.6494 563.169 87.5194 563.709 88.2994C564.229 89.0794 564.929 89.7094 565.809 90.1894C566.689 90.6494 567.679 90.8794 568.779 90.8794ZM563.199 66.2905C563.219 67.6105 563.559 68.7805 564.219 69.8005C564.859 70.8005 565.749 71.5105 566.889 71.9305H576.549V74.5705H560.889V72.1105H564.519C563.439 71.5705 562.569 70.8605 561.909 69.9805C561.229 69.0805 560.849 68.1405 560.769 67.1605C560.769 66.9605 560.769 66.7905 560.769 66.6505C560.769 66.5105 560.779 66.3905 560.799 66.2905H563.199ZM576.549 52.632L568.929 58.062L571.719 61.032H576.549V63.672H554.649V61.032H568.959L560.919 52.932V50.082L567.399 56.322L576.549 49.782V52.632ZM565.749 40.8723C564.449 40.8723 563.179 40.6523 561.939 40.2123C560.679 39.7523 559.539 39.0923 558.519 38.2323C557.479 37.3523 556.659 36.2823 556.059 35.0223C555.439 33.7623 555.129 32.3323 555.129 30.7323C555.129 28.8323 555.569 27.2023 556.449 25.8423C557.309 24.4823 558.419 23.4723 559.779 22.8123L561.159 24.9423C560.259 25.3623 559.549 25.9023 559.029 26.5623C558.489 27.2023 558.109 27.9023 557.889 28.6623C557.669 29.4023 557.559 30.1323 557.559 30.8523C557.559 32.0323 557.799 33.0823 558.279 34.0023C558.759 34.9023 559.399 35.6623 560.199 36.2823C560.999 36.9023 561.899 37.3723 562.899 37.6923C563.879 37.9923 564.869 38.1423 565.869 38.1423C566.969 38.1423 568.029 37.9623 569.049 37.6023C570.069 37.2223 570.969 36.7023 571.749 36.0423C572.529 35.3823 573.149 34.6023 573.609 33.7023C574.069 32.8023 574.299 31.8223 574.299 30.7623C574.299 30.0223 574.169 29.2623 573.909 28.4823C573.649 27.7023 573.249 26.9723 572.709 26.2923C572.149 25.6123 571.429 25.0723 570.549 24.6723L571.779 22.4223C572.839 22.8623 573.739 23.5423 574.479 24.4623C575.219 25.3823 575.779 26.4123 576.159 27.5523C576.539 28.6723 576.729 29.7823 576.729 30.8823C576.729 32.3423 576.419 33.6823 575.799 34.9023C575.159 36.1223 574.319 37.1823 573.279 38.0823C572.219 38.9623 571.039 39.6523 569.739 40.1523C568.419 40.6323 567.089 40.8723 565.749 40.8723Z" fill="#001018"/>
<path d="M71.427 124.232C71.427 147.643 72.2631 166.873 104.035 166.873C134.553 166.873 134.553 186.104 134.553 207.425L134.553 232.09C134.553 253.411 134.553 273.895 104.035 273.895C70.2562 273.895 71.4268 296.888 71.4268 319.881" stroke="#8996A2" stroke-width="3.34443"/>
<circle cx="134.553" cy="204.078" r="9.19719" fill="#8996A2"/>
<circle cx="134.553" cy="239.195" r="9.19719" fill="#8996A2"/>
<path d="M71.0168 355.412C71.0168 378.823 71.853 398.053 103.625 398.053C134.143 398.053 134.143 417.284 134.143 438.604L134.143 535.175C134.143 556.496 134.143 576.98 103.625 576.98C69.8461 576.98 71.0166 599.973 71.0166 622.966" stroke="#8996A2" stroke-width="3.34443"/>
<circle cx="134.143" cy="470.796" r="9.19719" fill="#8996A2"/>
<circle cx="134.143" cy="526.812" r="9.19719" fill="#8996A2"/>
<path d="M346.095 195.716C346.095 219.127 346.931 238.358 378.703 238.358C409.221 238.358 409.221 257.588 409.221 278.909L409.221 375.479C409.221 396.8 409.221 417.285 378.703 417.285C344.924 417.285 346.095 440.278 346.095 463.271" stroke="#8996A2" stroke-width="3.34443"/>
<circle cx="409.221" cy="311.101" r="9.19719" fill="#8996A2"/>
<circle cx="409.221" cy="367.117" r="9.19719" fill="#8996A2"/>
<path d="M70.8086 800.844L82.6469 789.006L70.8086 777.168L58.9703 789.006L70.8086 800.844ZM68.7581 27.3088L68.7581 789.006L72.859 789.006L72.859 27.3088L68.7581 27.3088Z" fill="#00AEEF"/>
<path d="M613.809 800.844L625.647 789.006L613.809 777.168L601.97 789.006L613.809 800.844ZM611.758 27.3088L611.758 789.006L615.859 789.006L615.859 27.3088L611.758 27.3088Z" fill="#00AEEF"/>
<path d="M856.809 800.844L868.647 789.006L856.809 777.168L844.97 789.006L856.809 800.844ZM854.758 27.3088L854.758 789.006L858.859 789.006L858.859 27.3088L854.758 27.3088Z" fill="#00AEEF"/>
<path d="M1124.81 800.844L1136.65 789.006L1124.81 777.168L1112.97 789.006L1124.81 800.844ZM1122.76 27.3088L1122.76 789.006L1126.86 789.006L1126.86 27.3088L1122.76 27.3088Z" fill="#00AEEF"/>
<path d="M344.809 800.844L356.647 789.006L344.809 777.168L332.97 789.006L344.809 800.844ZM342.758 27.3088L342.758 789.006L346.859 789.006L346.859 27.3088L342.758 27.3088Z" fill="#00AEEF"/>
<circle cx="70.8086" cy="27.3088" r="9.56879" transform="rotate(90 70.8086 27.3088)" fill="#00AEEF"/>
<path d="M70.3843 376.878C65.0996 376.878 60.8155 372.593 60.8155 367.309C60.8155 362.024 65.0996 357.74 70.3843 357.74C75.669 357.74 79.9531 362.024 79.9531 367.309C79.9531 372.593 75.669 376.878 70.3843 376.878Z" fill="#00AEEF"/>
<path d="M69.8018 297.214C64.5169 297.214 60.2326 292.93 60.2326 287.645C60.2326 282.36 64.5169 278.076 69.8018 278.076C75.0868 278.076 79.3711 282.36 79.3711 287.645C79.3711 292.93 75.0868 297.214 69.8018 297.214Z" fill="#00AEEF"/>
<path d="M69.7125 151.308C64.4278 151.308 60.1437 147.024 60.1437 141.739C60.1437 136.454 64.4278 132.17 69.7125 132.17C74.9972 132.17 79.2812 136.454 79.2812 141.739C79.2812 147.024 74.9972 151.308 69.7125 151.308Z" fill="#00AEEF"/>
<circle cx="344.809" cy="27.3088" r="9.56879" transform="rotate(90 344.809 27.3088)" fill="#00AEEF"/>
<path d="M344.884 296.793C339.599 296.793 335.315 292.508 335.315 287.223C335.315 281.938 339.599 277.654 344.884 277.654C350.169 277.654 354.453 281.938 354.453 287.223C354.453 292.508 350.169 296.793 344.884 296.793Z" fill="#00AEEF"/>
<path d="M345.72 213.183C340.436 213.183 336.151 208.899 336.151 203.614C336.151 198.329 340.436 194.045 345.72 194.045C351.005 194.045 355.289 198.329 355.289 203.614C355.289 208.899 351.005 213.183 345.72 213.183Z" fill="#00AEEF"/>
<path d="M346.552 373.713C341.268 373.713 336.984 369.429 336.984 364.144C336.984 358.86 341.268 354.576 346.552 354.576C351.837 354.576 356.121 358.86 356.121 364.144C356.121 369.429 351.837 373.713 346.552 373.713Z" fill="#00AEEF"/>
<path d="M346.462 461.51C341.178 461.51 336.894 457.226 336.894 451.941C336.894 446.657 341.178 442.373 346.462 442.373C351.747 442.373 356.031 446.657 356.031 451.941C356.031 457.226 351.747 461.51 346.462 461.51Z" fill="#00AEEF"/>
<path d="M614.064 124.646C614.064 148.057 614.9 167.288 646.672 167.288C677.19 167.288 677.19 186.518 677.19 207.839L677.19 304.409C677.19 325.73 677.19 346.215 646.672 346.215C612.893 346.215 614.064 369.208 614.064 392.201" stroke="#8996A2" stroke-width="3.34443"/>
<circle cx="677.19" cy="240.031" r="9.19719" fill="#8996A2"/>
<circle cx="677.19" cy="296.047" r="9.19719" fill="#8996A2"/>
<path d="M614.476 355.412C614.476 378.823 613.639 398.053 581.867 398.053C551.35 398.053 551.349 417.284 551.349 438.605L551.35 535.175C551.35 556.496 551.35 576.98 581.868 576.98C615.646 576.98 614.476 599.973 614.476 622.966" stroke="#8996A2" stroke-width="3.34443"/>
<circle r="9.19719" transform="matrix(-1 0 0 1 551.35 470.797)" fill="#8996A2"/>
<circle r="9.19719" transform="matrix(-1 0 0 1 551.35 526.812)" fill="#8996A2"/>
<circle r="9.56879" transform="matrix(4.37114e-08 1 1 -4.37114e-08 613.809 27.3088)" fill="#00AEEF"/>
<path d="M614.855 262.191C620.139 262.191 624.424 257.907 624.424 252.622C624.424 247.337 620.139 243.052 614.855 243.052C609.57 243.052 605.285 247.337 605.285 252.622C605.285 257.907 609.57 262.191 614.855 262.191Z" fill="#00AEEF"/>
<path d="M614.948 119.543C620.233 119.543 624.517 115.258 624.517 109.973C624.517 104.688 620.233 100.404 614.948 100.404C609.663 100.404 605.379 104.688 605.379 109.973C605.379 115.258 609.663 119.543 614.948 119.543Z" fill="#00AEEF"/>
<path d="M614.112 373.714C619.397 373.714 623.681 369.429 623.681 364.145C623.681 358.86 619.397 354.576 614.112 354.576C608.827 354.576 604.543 358.86 604.543 364.145C604.543 369.429 608.827 373.714 614.112 373.714Z" fill="#00AEEF"/>
<path d="M811.533 284.425C796.327 284.425 784 272.098 784 256.892V30.8255C784 15.6192 796.327 3.29211 811.533 3.29211C826.74 3.29211 839.067 15.6192 839.067 30.8254V256.892C839.067 272.098 826.74 284.425 811.533 284.425Z" fill="#FEFFFF"/>
<path d="M805.203 249.299C804.923 249.539 804.653 249.859 804.393 250.259C804.133 250.659 803.903 251.109 803.703 251.609C803.483 252.109 803.313 252.659 803.193 253.259C803.053 253.839 802.983 254.449 802.983 255.089C802.983 256.729 803.293 257.939 803.913 258.719C804.533 259.499 805.383 259.889 806.463 259.889C807.223 259.889 807.823 259.689 808.263 259.289C808.703 258.889 809.063 258.279 809.343 257.459C809.623 256.619 809.913 255.559 810.213 254.279C810.533 252.799 810.923 251.519 811.383 250.439C811.843 249.359 812.463 248.529 813.243 247.949C814.003 247.369 815.023 247.079 816.303 247.079C817.323 247.079 818.213 247.279 818.973 247.679C819.713 248.059 820.333 248.599 820.833 249.299C821.313 249.999 821.673 250.819 821.913 251.759C822.133 252.699 822.243 253.719 822.243 254.819C822.243 255.899 822.133 256.959 821.913 257.999C821.673 259.019 821.333 259.989 820.893 260.909C820.453 261.829 819.903 262.689 819.243 263.489L816.963 262.199C817.303 261.879 817.643 261.469 817.983 260.969C818.303 260.449 818.603 259.869 818.883 259.229C819.163 258.569 819.393 257.859 819.573 257.099C819.733 256.339 819.813 255.559 819.813 254.759C819.813 253.239 819.543 252.059 819.003 251.219C818.443 250.379 817.633 249.959 816.573 249.959C815.773 249.959 815.133 250.199 814.653 250.679C814.173 251.139 813.773 251.829 813.453 252.749C813.133 253.669 812.813 254.789 812.493 256.109C812.133 257.549 811.743 258.759 811.323 259.739C810.883 260.719 810.313 261.459 809.613 261.959C808.913 262.439 808.003 262.679 806.883 262.679C805.523 262.679 804.373 262.349 803.433 261.689C802.493 261.029 801.783 260.119 801.303 258.959C800.823 257.799 800.583 256.489 800.583 255.029C800.583 254.069 800.683 253.179 800.883 252.359C801.083 251.519 801.363 250.739 801.723 250.019C802.083 249.299 802.513 248.639 803.013 248.039L805.203 249.299ZM822.333 237.107C822.333 238.287 822.123 239.357 821.703 240.317C821.263 241.277 820.673 242.107 819.933 242.807C819.173 243.507 818.303 244.047 817.323 244.427C816.343 244.807 815.313 244.997 814.233 244.997C813.133 244.997 812.093 244.807 811.113 244.427C810.133 244.047 809.273 243.507 808.533 242.807C807.773 242.107 807.183 241.277 806.763 240.317C806.323 239.337 806.103 238.267 806.103 237.107C806.103 235.927 806.323 234.857 806.763 233.897C807.183 232.937 807.773 232.107 808.533 231.407C809.273 230.687 810.133 230.137 811.113 229.757C812.093 229.377 813.133 229.187 814.233 229.187C815.313 229.187 816.343 229.377 817.323 229.757C818.303 230.137 819.173 230.677 819.933 231.377C820.673 232.077 821.263 232.917 821.703 233.897C822.123 234.857 822.333 235.927 822.333 237.107ZM814.263 242.297C815.343 242.297 816.323 242.067 817.203 241.607C818.083 241.127 818.783 240.497 819.303 239.717C819.803 238.937 820.053 238.067 820.053 237.107C820.053 236.147 819.793 235.277 819.273 234.497C818.753 233.697 818.053 233.067 817.173 232.607C816.273 232.127 815.283 231.887 814.203 231.887C813.123 231.887 812.143 232.127 811.263 232.607C810.383 233.067 809.683 233.697 809.163 234.497C808.643 235.277 808.383 236.147 808.383 237.107C808.383 238.067 808.653 238.937 809.193 239.717C809.713 240.497 810.413 241.127 811.293 241.607C812.173 242.067 813.163 242.297 814.263 242.297ZM822.333 219.058C822.333 220.238 822.123 221.318 821.703 222.298C821.263 223.258 820.663 224.098 819.903 224.818C819.143 225.518 818.273 226.068 817.293 226.468C816.313 226.848 815.273 227.038 814.173 227.038C812.693 227.038 811.343 226.708 810.123 226.048C808.903 225.388 807.933 224.458 807.213 223.258C806.473 222.058 806.103 220.668 806.103 219.088C806.103 217.548 806.453 216.208 807.153 215.068C807.833 213.908 808.753 213.048 809.913 212.488L810.723 215.068C809.983 215.468 809.413 216.028 809.013 216.748C808.593 217.468 808.383 218.268 808.383 219.148C808.383 220.108 808.633 220.988 809.133 221.788C809.633 222.568 810.323 223.188 811.203 223.648C812.063 224.108 813.053 224.338 814.173 224.338C815.273 224.338 816.273 224.108 817.173 223.648C818.053 223.168 818.753 222.538 819.273 221.758C819.793 220.958 820.053 220.078 820.053 219.118C820.053 218.498 819.943 217.908 819.723 217.348C819.503 216.768 819.213 216.268 818.853 215.848C818.473 215.408 818.063 215.108 817.623 214.948L818.403 212.368C819.163 212.688 819.843 213.178 820.443 213.838C821.023 214.478 821.483 215.248 821.823 216.148C822.163 217.028 822.333 217.998 822.333 219.058ZM822.033 209.377H806.373V206.737H822.033V209.377ZM803.433 209.377H800.133V206.737H803.433V209.377ZM817.503 203.693C816.503 203.693 815.643 203.413 814.923 202.853C814.183 202.273 813.613 201.483 813.213 200.483C812.813 199.483 812.613 198.323 812.613 197.003C812.613 196.303 812.673 195.563 812.793 194.783C812.893 194.003 813.053 193.313 813.273 192.713H812.133C810.933 192.713 809.993 193.073 809.313 193.793C808.613 194.513 808.263 195.533 808.263 196.853C808.263 197.713 808.423 198.543 808.743 199.343C809.043 200.123 809.483 200.953 810.063 201.833L808.203 202.793C807.503 201.773 806.983 200.753 806.643 199.733C806.283 198.713 806.103 197.653 806.103 196.553C806.103 194.553 806.663 192.973 807.783 191.813C808.883 190.653 810.423 190.073 812.403 190.073H819.033C819.353 190.073 819.593 190.013 819.753 189.893C819.893 189.753 819.973 189.533 819.993 189.233H822.033C822.073 189.493 822.103 189.723 822.123 189.923C822.143 190.103 822.153 190.253 822.153 190.373C822.153 190.993 821.983 191.463 821.643 191.783C821.303 192.083 820.943 192.253 820.563 192.293L819.573 192.353C820.453 193.033 821.133 193.923 821.613 195.023C822.093 196.123 822.333 197.213 822.333 198.293C822.333 199.333 822.123 200.263 821.703 201.083C821.263 201.903 820.683 202.543 819.963 203.003C819.223 203.463 818.403 203.693 817.503 203.693ZM818.613 193.493C818.333 193.253 818.053 193.063 817.773 192.923C817.473 192.783 817.223 192.713 817.023 192.713H815.073C814.833 193.333 814.653 193.983 814.533 194.663C814.393 195.343 814.323 196.013 814.323 196.673C814.323 198.013 814.593 199.103 815.133 199.943C815.653 200.763 816.373 201.173 817.293 201.173C817.793 201.173 818.283 201.043 818.763 200.783C819.223 200.503 819.603 200.103 819.903 199.583C820.203 199.043 820.353 198.383 820.353 197.603C820.353 196.783 820.193 196.003 819.873 195.263C819.533 194.523 819.113 193.933 818.613 193.493ZM800.133 185.792V183.152H817.983C818.843 183.152 819.373 183.032 819.573 182.792C819.773 182.552 819.873 182.262 819.873 181.922C819.873 181.502 819.833 181.102 819.753 180.722C819.653 180.342 819.553 180.022 819.453 179.762L821.613 179.342C821.793 179.782 821.943 180.302 822.063 180.902C822.183 181.502 822.243 182.032 822.243 182.492C822.243 183.512 821.953 184.322 821.373 184.922C820.793 185.502 819.983 185.792 818.943 185.792H800.133ZM805.713 167.468H822.033V170.168H800.733V167.888L817.383 154.868H800.763V152.168H822.033V154.628L805.713 167.468ZM822.333 140.836C822.333 142.016 822.123 143.096 821.703 144.076C821.263 145.036 820.673 145.876 819.933 146.596C819.173 147.296 818.303 147.846 817.323 148.246C816.343 148.626 815.303 148.816 814.203 148.816C812.723 148.816 811.373 148.476 810.153 147.796C808.933 147.116 807.953 146.176 807.213 144.976C806.473 143.756 806.103 142.366 806.103 140.806C806.103 139.226 806.483 137.856 807.243 136.696C807.983 135.516 808.963 134.606 810.183 133.966C811.383 133.306 812.683 132.976 814.083 132.976C814.283 132.976 814.483 132.986 814.683 133.006C814.863 133.006 815.003 133.016 815.103 133.036V146.026C816.123 145.946 817.033 145.666 817.833 145.186C818.613 144.686 819.233 144.046 819.693 143.266C820.133 142.486 820.353 141.646 820.353 140.746C820.353 139.786 820.113 138.886 819.633 138.046C819.153 137.186 818.523 136.596 817.743 136.276L818.373 133.996C819.133 134.336 819.813 134.846 820.413 135.526C821.013 136.186 821.483 136.976 821.823 137.896C822.163 138.796 822.333 139.776 822.333 140.836ZM813.273 146.116V135.436C812.253 135.516 811.353 135.806 810.573 136.306C809.793 136.806 809.183 137.446 808.743 138.226C808.303 139.006 808.083 139.866 808.083 140.806C808.083 141.726 808.303 142.576 808.743 143.356C809.183 144.136 809.793 144.776 810.573 145.276C811.353 145.756 812.253 146.036 813.273 146.116ZM821.253 122.088C821.353 122.308 821.483 122.608 821.643 122.988C821.803 123.368 821.943 123.808 822.063 124.308C822.183 124.808 822.243 125.338 822.243 125.898C822.243 126.538 822.133 127.128 821.913 127.668C821.673 128.208 821.313 128.638 820.833 128.958C820.333 129.278 819.713 129.438 818.973 129.438H808.443V131.568H806.373V129.438H801.153V126.798H806.373V123.288H808.443V126.798H818.163C818.723 126.758 819.143 126.568 819.423 126.228C819.683 125.888 819.813 125.488 819.813 125.028C819.813 124.508 819.723 124.028 819.543 123.588C819.363 123.148 819.233 122.858 819.153 122.718L821.253 122.088ZM806.373 100.021V97.4708L822.033 104.131V106.441L814.653 109.471L822.033 112.471V114.781L806.373 121.441V118.921L819.423 113.521L813.003 111.001L806.403 113.641V111.331L811.383 109.471L806.403 107.611V105.301L813.003 107.911L819.423 105.391L806.373 100.021ZM822.333 88.6894C822.333 89.8694 822.123 90.9394 821.703 91.8994C821.263 92.8594 820.673 93.6894 819.933 94.3894C819.173 95.0894 818.303 95.6294 817.323 96.0094C816.343 96.3894 815.313 96.5794 814.233 96.5794C813.133 96.5794 812.093 96.3894 811.113 96.0094C810.133 95.6294 809.273 95.0894 808.533 94.3894C807.773 93.6894 807.183 92.8594 806.763 91.8994C806.323 90.9194 806.103 89.8494 806.103 88.6894C806.103 87.5094 806.323 86.4394 806.763 85.4794C807.183 84.5194 807.773 83.6894 808.533 82.9894C809.273 82.2694 810.133 81.7194 811.113 81.3394C812.093 80.9594 813.133 80.7694 814.233 80.7694C815.313 80.7694 816.343 80.9594 817.323 81.3394C818.303 81.7194 819.173 82.2594 819.933 82.9594C820.673 83.6594 821.263 84.4994 821.703 85.4794C822.123 86.4394 822.333 87.5094 822.333 88.6894ZM814.263 93.8794C815.343 93.8794 816.323 93.6494 817.203 93.1894C818.083 92.7094 818.783 92.0794 819.303 91.2994C819.803 90.5194 820.053 89.6494 820.053 88.6894C820.053 87.7294 819.793 86.8594 819.273 86.0794C818.753 85.2794 818.053 84.6494 817.173 84.1894C816.273 83.7094 815.283 83.4694 814.203 83.4694C813.123 83.4694 812.143 83.7094 811.263 84.1894C810.383 84.6494 809.683 85.2794 809.163 86.0794C808.643 86.8594 808.383 87.7294 808.383 88.6894C808.383 89.6494 808.653 90.5194 809.193 91.2994C809.713 92.0794 810.413 92.7094 811.293 93.1894C812.173 93.6494 813.163 93.8794 814.263 93.8794ZM808.683 69.2905C808.703 70.6105 809.043 71.7805 809.703 72.8005C810.343 73.8005 811.233 74.5105 812.373 74.9305H822.033V77.5705H806.373V75.1105H810.003C808.923 74.5705 808.053 73.8605 807.393 72.9805C806.713 72.0805 806.333 71.1405 806.253 70.1605C806.253 69.9605 806.253 69.7905 806.253 69.6505C806.253 69.5105 806.263 69.3905 806.283 69.2905H808.683ZM822.033 55.632L814.413 61.062L817.203 64.032H822.033V66.672H800.133V64.032H814.443L806.403 55.932V53.082L812.883 59.322L822.033 52.782V55.632ZM822.033 42.4923H800.733V35.1123C800.733 32.8323 801.213 30.9323 802.173 29.4123C803.113 27.8723 804.393 26.7223 806.013 25.9623C807.613 25.2023 809.393 24.8223 811.353 24.8223C813.513 24.8223 815.393 25.2423 816.993 26.0823C818.593 26.9223 819.833 28.1123 820.713 29.6523C821.593 31.1923 822.033 33.0123 822.033 35.1123V42.4923ZM811.353 27.5523C809.753 27.5523 808.333 27.8523 807.093 28.4523C805.853 29.0323 804.883 29.8823 804.183 31.0023C803.483 32.1223 803.133 33.4923 803.133 35.1123V39.7923H819.633V35.1123C819.633 33.4723 819.273 32.0923 818.553 30.9723C817.813 29.8523 816.823 29.0023 815.583 28.4223C814.323 27.8423 812.913 27.5523 811.353 27.5523Z" fill="#001018"/>
<path d="M1076.53 278.168C1061.33 278.168 1049 265.841 1049 250.635V27.5681C1049 12.3619 1061.33 0.03479 1076.53 0.03479C1091.74 0.03479 1104.07 12.3619 1104.07 27.5681V250.635C1104.07 265.841 1091.74 278.168 1076.53 278.168Z" fill="#FEFFFF"/>
<path d="M1070.2 243.041C1069.92 243.281 1069.65 243.601 1069.39 244.001C1069.13 244.401 1068.9 244.851 1068.7 245.351C1068.48 245.851 1068.31 246.401 1068.19 247.001C1068.05 247.581 1067.98 248.191 1067.98 248.831C1067.98 250.471 1068.29 251.681 1068.91 252.461C1069.53 253.241 1070.38 253.631 1071.46 253.631C1072.22 253.631 1072.82 253.431 1073.26 253.031C1073.7 252.631 1074.06 252.021 1074.34 251.201C1074.62 250.361 1074.91 249.301 1075.21 248.021C1075.53 246.541 1075.92 245.261 1076.38 244.181C1076.84 243.101 1077.46 242.271 1078.24 241.691C1079 241.111 1080.02 240.821 1081.3 240.821C1082.32 240.821 1083.21 241.021 1083.97 241.421C1084.71 241.801 1085.33 242.341 1085.83 243.041C1086.31 243.741 1086.67 244.561 1086.91 245.501C1087.13 246.441 1087.24 247.461 1087.24 248.561C1087.24 249.641 1087.13 250.701 1086.91 251.741C1086.67 252.761 1086.33 253.731 1085.89 254.651C1085.45 255.571 1084.9 256.431 1084.24 257.231L1081.96 255.941C1082.3 255.621 1082.64 255.211 1082.98 254.711C1083.3 254.191 1083.6 253.611 1083.88 252.971C1084.16 252.311 1084.39 251.601 1084.57 250.841C1084.73 250.081 1084.81 249.301 1084.81 248.501C1084.81 246.981 1084.54 245.801 1084 244.961C1083.44 244.121 1082.63 243.701 1081.57 243.701C1080.77 243.701 1080.13 243.941 1079.65 244.421C1079.17 244.881 1078.77 245.571 1078.45 246.491C1078.13 247.411 1077.81 248.531 1077.49 249.851C1077.13 251.291 1076.74 252.501 1076.32 253.481C1075.88 254.461 1075.31 255.201 1074.61 255.701C1073.91 256.181 1073 256.421 1071.88 256.421C1070.52 256.421 1069.37 256.091 1068.43 255.431C1067.49 254.771 1066.78 253.861 1066.3 252.701C1065.82 251.541 1065.58 250.231 1065.58 248.771C1065.58 247.811 1065.68 246.921 1065.88 246.101C1066.08 245.261 1066.36 244.481 1066.72 243.761C1067.08 243.041 1067.51 242.381 1068.01 241.781L1070.2 243.041ZM1087.33 230.85C1087.33 232.03 1087.12 233.1 1086.7 234.06C1086.26 235.02 1085.67 235.85 1084.93 236.55C1084.17 237.25 1083.3 237.79 1082.32 238.17C1081.34 238.55 1080.31 238.74 1079.23 238.74C1078.13 238.74 1077.09 238.55 1076.11 238.17C1075.13 237.79 1074.27 237.25 1073.53 236.55C1072.77 235.85 1072.18 235.02 1071.76 234.06C1071.32 233.08 1071.1 232.01 1071.1 230.85C1071.1 229.67 1071.32 228.6 1071.76 227.64C1072.18 226.68 1072.77 225.85 1073.53 225.15C1074.27 224.43 1075.13 223.88 1076.11 223.5C1077.09 223.12 1078.13 222.93 1079.23 222.93C1080.31 222.93 1081.34 223.12 1082.32 223.5C1083.3 223.88 1084.17 224.42 1084.93 225.12C1085.67 225.82 1086.26 226.66 1086.7 227.64C1087.12 228.6 1087.33 229.67 1087.33 230.85ZM1079.26 236.04C1080.34 236.04 1081.32 235.81 1082.2 235.35C1083.08 234.87 1083.78 234.24 1084.3 233.46C1084.8 232.68 1085.05 231.81 1085.05 230.85C1085.05 229.89 1084.79 229.02 1084.27 228.24C1083.75 227.44 1083.05 226.81 1082.17 226.35C1081.27 225.87 1080.28 225.63 1079.2 225.63C1078.12 225.63 1077.14 225.87 1076.26 226.35C1075.38 226.81 1074.68 227.44 1074.16 228.24C1073.64 229.02 1073.38 229.89 1073.38 230.85C1073.38 231.81 1073.65 232.68 1074.19 233.46C1074.71 234.24 1075.41 234.87 1076.29 235.35C1077.17 235.81 1078.16 236.04 1079.26 236.04ZM1087.33 212.801C1087.33 213.981 1087.12 215.061 1086.7 216.041C1086.26 217.001 1085.66 217.841 1084.9 218.561C1084.14 219.261 1083.27 219.811 1082.29 220.211C1081.31 220.591 1080.27 220.781 1079.17 220.781C1077.69 220.781 1076.34 220.451 1075.12 219.791C1073.9 219.131 1072.93 218.201 1072.21 217.001C1071.47 215.801 1071.1 214.411 1071.1 212.831C1071.1 211.291 1071.45 209.951 1072.15 208.811C1072.83 207.651 1073.75 206.791 1074.91 206.231L1075.72 208.811C1074.98 209.211 1074.41 209.771 1074.01 210.491C1073.59 211.211 1073.38 212.011 1073.38 212.891C1073.38 213.851 1073.63 214.731 1074.13 215.531C1074.63 216.311 1075.32 216.931 1076.2 217.391C1077.06 217.851 1078.05 218.081 1079.17 218.081C1080.27 218.081 1081.27 217.851 1082.17 217.391C1083.05 216.911 1083.75 216.281 1084.27 215.501C1084.79 214.701 1085.05 213.821 1085.05 212.861C1085.05 212.241 1084.94 211.651 1084.72 211.091C1084.5 210.511 1084.21 210.011 1083.85 209.591C1083.47 209.151 1083.06 208.851 1082.62 208.691L1083.4 206.111C1084.16 206.431 1084.84 206.921 1085.44 207.581C1086.02 208.221 1086.48 208.991 1086.82 209.891C1087.16 210.771 1087.33 211.741 1087.33 212.801ZM1087.03 203.12H1071.37V200.48H1087.03V203.12ZM1068.43 203.12H1065.13V200.48H1068.43V203.12ZM1082.5 197.436C1081.5 197.436 1080.64 197.156 1079.92 196.596C1079.18 196.016 1078.61 195.226 1078.21 194.226C1077.81 193.226 1077.61 192.066 1077.61 190.746C1077.61 190.046 1077.67 189.306 1077.79 188.526C1077.89 187.746 1078.05 187.056 1078.27 186.456H1077.13C1075.93 186.456 1074.99 186.816 1074.31 187.536C1073.61 188.256 1073.26 189.276 1073.26 190.596C1073.26 191.456 1073.42 192.286 1073.74 193.086C1074.04 193.866 1074.48 194.696 1075.06 195.576L1073.2 196.536C1072.5 195.516 1071.98 194.496 1071.64 193.476C1071.28 192.456 1071.1 191.396 1071.1 190.296C1071.1 188.296 1071.66 186.716 1072.78 185.556C1073.88 184.396 1075.42 183.816 1077.4 183.816H1084.03C1084.35 183.816 1084.59 183.756 1084.75 183.636C1084.89 183.496 1084.97 183.276 1084.99 182.976H1087.03C1087.07 183.236 1087.1 183.466 1087.12 183.666C1087.14 183.846 1087.15 183.996 1087.15 184.116C1087.15 184.736 1086.98 185.206 1086.64 185.526C1086.3 185.826 1085.94 185.996 1085.56 186.036L1084.57 186.096C1085.45 186.776 1086.13 187.666 1086.61 188.766C1087.09 189.866 1087.33 190.956 1087.33 192.036C1087.33 193.076 1087.12 194.006 1086.7 194.826C1086.26 195.646 1085.68 196.286 1084.96 196.746C1084.22 197.206 1083.4 197.436 1082.5 197.436ZM1083.61 187.236C1083.33 186.996 1083.05 186.806 1082.77 186.666C1082.47 186.526 1082.22 186.456 1082.02 186.456H1080.07C1079.83 187.076 1079.65 187.726 1079.53 188.406C1079.39 189.086 1079.32 189.756 1079.32 190.416C1079.32 191.756 1079.59 192.846 1080.13 193.686C1080.65 194.506 1081.37 194.916 1082.29 194.916C1082.79 194.916 1083.28 194.786 1083.76 194.526C1084.22 194.246 1084.6 193.846 1084.9 193.326C1085.2 192.786 1085.35 192.126 1085.35 191.346C1085.35 190.526 1085.19 189.746 1084.87 189.006C1084.53 188.266 1084.11 187.676 1083.61 187.236ZM1065.13 179.534V176.894H1082.98C1083.84 176.894 1084.37 176.774 1084.57 176.534C1084.77 176.294 1084.87 176.004 1084.87 175.664C1084.87 175.244 1084.83 174.844 1084.75 174.464C1084.65 174.084 1084.55 173.764 1084.45 173.504L1086.61 173.084C1086.79 173.524 1086.94 174.044 1087.06 174.644C1087.18 175.244 1087.24 175.774 1087.24 176.234C1087.24 177.254 1086.95 178.064 1086.37 178.664C1085.79 179.244 1084.98 179.534 1083.94 179.534H1065.13ZM1070.71 161.211H1087.03V163.911H1065.73V161.631L1082.38 148.611H1065.76V145.911H1087.03V148.371L1070.71 161.211ZM1087.33 134.578C1087.33 135.758 1087.12 136.838 1086.7 137.818C1086.26 138.778 1085.67 139.618 1084.93 140.338C1084.17 141.038 1083.3 141.588 1082.32 141.988C1081.34 142.368 1080.3 142.558 1079.2 142.558C1077.72 142.558 1076.37 142.218 1075.15 141.538C1073.93 140.858 1072.95 139.918 1072.21 138.718C1071.47 137.498 1071.1 136.108 1071.1 134.548C1071.1 132.968 1071.48 131.598 1072.24 130.438C1072.98 129.258 1073.96 128.348 1075.18 127.708C1076.38 127.048 1077.68 126.718 1079.08 126.718C1079.28 126.718 1079.48 126.728 1079.68 126.748C1079.86 126.748 1080 126.758 1080.1 126.778V139.768C1081.12 139.688 1082.03 139.408 1082.83 138.928C1083.61 138.428 1084.23 137.788 1084.69 137.008C1085.13 136.228 1085.35 135.388 1085.35 134.488C1085.35 133.528 1085.11 132.628 1084.63 131.788C1084.15 130.928 1083.52 130.338 1082.74 130.018L1083.37 127.738C1084.13 128.078 1084.81 128.588 1085.41 129.268C1086.01 129.928 1086.48 130.718 1086.82 131.638C1087.16 132.538 1087.33 133.518 1087.33 134.578ZM1078.27 139.858V129.178C1077.25 129.258 1076.35 129.548 1075.57 130.048C1074.79 130.548 1074.18 131.188 1073.74 131.968C1073.3 132.748 1073.08 133.608 1073.08 134.548C1073.08 135.468 1073.3 136.318 1073.74 137.098C1074.18 137.878 1074.79 138.518 1075.57 139.018C1076.35 139.498 1077.25 139.778 1078.27 139.858ZM1086.25 115.83C1086.35 116.05 1086.48 116.35 1086.64 116.73C1086.8 117.11 1086.94 117.55 1087.06 118.05C1087.18 118.55 1087.24 119.08 1087.24 119.64C1087.24 120.28 1087.13 120.87 1086.91 121.41C1086.67 121.95 1086.31 122.38 1085.83 122.7C1085.33 123.02 1084.71 123.18 1083.97 123.18H1073.44V125.31H1071.37V123.18H1066.15V120.54H1071.37V117.03H1073.44V120.54H1083.16C1083.72 120.5 1084.14 120.31 1084.42 119.97C1084.68 119.63 1084.81 119.23 1084.81 118.77C1084.81 118.25 1084.72 117.77 1084.54 117.33C1084.36 116.89 1084.23 116.6 1084.15 116.46L1086.25 115.83ZM1071.37 93.7634V91.2134L1087.03 97.8734V100.183L1079.65 103.213L1087.03 106.213V108.523L1071.37 115.183V112.663L1084.42 107.263L1078 104.743L1071.4 107.383V105.073L1076.38 103.213L1071.4 101.353V99.0434L1078 101.653L1084.42 99.1334L1071.37 93.7634ZM1087.33 82.4321C1087.33 83.6121 1087.12 84.6821 1086.7 85.6421C1086.26 86.6021 1085.67 87.4321 1084.93 88.1321C1084.17 88.8321 1083.3 89.3721 1082.32 89.7521C1081.34 90.1321 1080.31 90.3221 1079.23 90.3221C1078.13 90.3221 1077.09 90.1321 1076.11 89.7521C1075.13 89.3721 1074.27 88.8321 1073.53 88.1321C1072.77 87.4321 1072.18 86.6021 1071.76 85.6421C1071.32 84.6621 1071.1 83.5921 1071.1 82.4321C1071.1 81.2521 1071.32 80.1821 1071.76 79.2221C1072.18 78.2621 1072.77 77.4321 1073.53 76.7321C1074.27 76.0121 1075.13 75.4621 1076.11 75.0821C1077.09 74.7021 1078.13 74.5121 1079.23 74.5121C1080.31 74.5121 1081.34 74.7021 1082.32 75.0821C1083.3 75.4621 1084.17 76.0021 1084.93 76.7021C1085.67 77.4021 1086.26 78.2421 1086.7 79.2221C1087.12 80.1821 1087.33 81.2521 1087.33 82.4321ZM1079.26 87.6221C1080.34 87.6221 1081.32 87.3921 1082.2 86.9321C1083.08 86.4521 1083.78 85.8221 1084.3 85.0421C1084.8 84.2621 1085.05 83.3921 1085.05 82.4321C1085.05 81.4721 1084.79 80.6021 1084.27 79.8221C1083.75 79.0221 1083.05 78.3921 1082.17 77.9321C1081.27 77.4521 1080.28 77.2121 1079.2 77.2121C1078.12 77.2121 1077.14 77.4521 1076.26 77.9321C1075.38 78.3921 1074.68 79.0221 1074.16 79.8221C1073.64 80.6021 1073.38 81.4721 1073.38 82.4321C1073.38 83.3921 1073.65 84.2621 1074.19 85.0421C1074.71 85.8221 1075.41 86.4521 1076.29 86.9321C1077.17 87.3921 1078.16 87.6221 1079.26 87.6221ZM1073.68 63.0331C1073.7 64.3531 1074.04 65.5231 1074.7 66.5431C1075.34 67.5431 1076.23 68.2531 1077.37 68.6731H1087.03V71.3131H1071.37V68.8531H1075C1073.92 68.3131 1073.05 67.6031 1072.39 66.7231C1071.71 65.8231 1071.33 64.8831 1071.25 63.9031C1071.25 63.7031 1071.25 63.5331 1071.25 63.3931C1071.25 63.2531 1071.26 63.1331 1071.28 63.0331H1073.68ZM1087.03 49.3747L1079.41 54.8047L1082.2 57.7747H1087.03V60.4147H1065.13V57.7747H1079.44L1071.4 49.6747V46.8247L1077.88 53.0647L1087.03 46.5247V49.3747ZM1084.63 21.7749H1087.03V36.2349H1065.73V22.0449H1068.13V33.5349H1075.03V23.5449H1077.28V33.5349H1084.63V21.7749Z" fill="#001018"/>
<path d="M856.579 195.716C856.579 219.127 857.415 238.358 889.188 238.358C919.705 238.358 919.705 257.588 919.705 278.909L919.705 375.479C919.705 396.8 919.705 417.285 889.187 417.285C855.409 417.285 856.579 440.278 856.579 463.271" stroke="#8996A2" stroke-width="3.34443"/>
<circle cx="919.705" cy="311.101" r="9.19719" fill="#8996A2"/>
<circle cx="919.705" cy="367.117" r="9.19719" fill="#8996A2"/>
<circle cx="855.293" cy="27.3088" r="9.56879" transform="rotate(90 855.293 27.3088)" fill="#00AEEF"/>
<path d="M855.368 296.793C850.083 296.793 845.799 292.508 845.799 287.223C845.799 281.938 850.083 277.654 855.368 277.654C860.653 277.654 864.937 281.938 864.937 287.223C864.937 292.508 860.653 296.793 855.368 296.793Z" fill="#00AEEF"/>
<path d="M856.205 213.183C850.92 213.183 846.636 208.899 846.636 203.614C846.636 198.329 850.92 194.045 856.205 194.045C861.489 194.045 865.773 198.329 865.773 203.614C865.773 208.899 861.489 213.183 856.205 213.183Z" fill="#00AEEF"/>
<path d="M857.037 373.713C851.752 373.713 847.468 369.429 847.468 364.144C847.468 358.86 851.752 354.576 857.037 354.576C862.321 354.576 866.605 358.86 866.605 364.144C866.605 369.429 862.321 373.713 857.037 373.713Z" fill="#00AEEF"/>
<path d="M856.947 461.51C851.662 461.51 847.378 457.226 847.378 451.941C847.378 446.657 851.662 442.373 856.947 442.373C862.232 442.373 866.516 446.657 866.516 451.941C866.516 457.226 862.232 461.51 856.947 461.51Z" fill="#00AEEF"/>
<path d="M1124.55 124.646C1124.55 148.057 1125.38 167.288 1157.16 167.288C1187.67 167.288 1187.67 186.518 1187.67 207.839L1187.67 304.409C1187.67 325.73 1187.67 346.215 1157.16 346.215C1123.38 346.215 1124.55 369.208 1124.55 392.201" stroke="#8996A2" stroke-width="3.34443"/>
<circle cx="1187.67" cy="240.031" r="9.19719" fill="#8996A2"/>
<circle cx="1187.67" cy="296.047" r="9.19719" fill="#8996A2"/>
<path d="M1124.96 355.412C1124.96 378.823 1124.12 398.053 1092.35 398.053C1061.83 398.053 1061.83 417.284 1061.83 438.605L1061.83 535.175C1061.83 556.496 1061.83 576.98 1092.35 576.98C1126.13 576.98 1124.96 599.973 1124.96 622.966" stroke="#8996A2" stroke-width="3.34443"/>
<circle r="9.19719" transform="matrix(-1 0 0 1 1061.83 470.797)" fill="#8996A2"/>
<circle r="9.19719" transform="matrix(-1 0 0 1 1061.83 526.812)" fill="#8996A2"/>
<circle r="9.56879" transform="matrix(4.37114e-08 1 1 -4.37114e-08 1124.29 27.3088)" fill="#00AEEF"/>
<path d="M1125.34 262.191C1130.62 262.191 1134.91 257.907 1134.91 252.622C1134.91 247.337 1130.62 243.052 1125.34 243.052C1120.05 243.052 1115.77 247.337 1115.77 252.622C1115.77 257.907 1120.05 262.191 1125.34 262.191Z" fill="#00AEEF"/>
<path d="M1125.43 119.543C1130.72 119.543 1135 115.258 1135 109.973C1135 104.688 1130.72 100.404 1125.43 100.404C1120.15 100.404 1115.86 104.688 1115.86 109.973C1115.86 115.258 1120.15 119.543 1125.43 119.543Z" fill="#00AEEF"/>
<path d="M1124.6 373.714C1129.88 373.714 1134.17 369.429 1134.17 364.145C1134.17 358.86 1129.88 354.576 1124.6 354.576C1119.31 354.576 1115.03 358.86 1115.03 364.145C1115.03 369.429 1119.31 373.714 1124.6 373.714Z" fill="#00AEEF"/>
<path d="M143 470.994C160.588 470.994 175.034 470.381 175.034 447.099C175.034 424.737 189.481 424.736 205.498 424.736L278.047 424.737C294.064 424.737 309.453 424.737 309.453 447.099C309.453 471.851 326.727 470.994 344 470.994" stroke="#8996A2" stroke-width="3.34443"/>
<ellipse cx="229.683" cy="424.737" rx="6.73946" ry="6.90937" transform="rotate(-90 229.683 424.737)" fill="#8996A2"/>
<ellipse cx="271.764" cy="424.737" rx="6.73946" ry="6.90937" transform="rotate(-90 271.764 424.737)" fill="#8996A2"/>
<path d="M404 366.994C421.588 366.994 436.034 366.381 436.034 343.099C436.034 320.737 450.481 320.736 466.498 320.736L539.047 320.737C555.064 320.737 570.453 320.737 570.453 343.099C570.453 367.851 587.727 366.994 605 366.994" stroke="#8996A2" stroke-width="3.34443"/>
<ellipse cx="490.683" cy="320.737" rx="6.73946" ry="6.90937" transform="rotate(-90 490.683 320.737)" fill="#8996A2"/>
<ellipse cx="532.764" cy="320.737" rx="6.73946" ry="6.90937" transform="rotate(-90 532.764 320.737)" fill="#8996A2"/>
<path d="M921 366.994C938.588 366.994 953.034 366.381 953.034 343.099C953.034 320.737 967.481 320.736 983.498 320.736L1056.05 320.737C1072.06 320.737 1087.45 320.737 1087.45 343.099C1087.45 367.851 1104.73 366.994 1122 366.994" stroke="#8996A2" stroke-width="3.34443"/>
<ellipse cx="1007.68" cy="320.737" rx="6.73946" ry="6.90937" transform="rotate(-90 1007.68 320.737)" fill="#8996A2"/>
<ellipse cx="1049.76" cy="320.737" rx="6.73946" ry="6.90937" transform="rotate(-90 1049.76 320.737)" fill="#8996A2"/>
<path d="M616 453.993C636.3 453.993 652.975 453.23 652.975 424.237C652.975 396.39 669.65 396.389 688.138 396.389L771.875 396.39C790.363 396.39 808.125 396.39 808.125 424.238C808.125 455.061 828.063 453.993 848 453.993" stroke="#8996A2" stroke-width="3.34443"/>
<ellipse cx="716.052" cy="396.39" rx="8.39251" ry="7.975" transform="rotate(-90 716.052 396.39)" fill="#8996A2"/>
<ellipse cx="764.623" cy="396.39" rx="8.39251" ry="7.975" transform="rotate(-90 764.623 396.39)" fill="#8996A2"/>
</svg>
