<svg width="20" height="21" viewBox="0 0 20 21" fill="none" xmlns="http://www.w3.org/2000/svg">
<circle cx="10" cy="10.2559" r="10" fill="#2F89CE"/>
<path d="M4.67535 10.4433L6.9744 11.3005L7.87063 14.1838C7.9096 14.3787 8.1434 14.4176 8.29927 14.3007L9.58517 13.2487C9.70207 13.1318 9.89691 13.1318 10.0528 13.2487L12.3518 14.9242C12.5077 15.0411 12.7415 14.9631 12.7804 14.7683L14.495 6.58578C14.534 6.39096 14.3391 6.19614 14.1443 6.27406L4.67535 9.93672C4.44155 10.0147 4.44155 10.3653 4.67535 10.4433ZM7.75374 10.8719L12.2739 8.10539C12.3518 8.06643 12.4297 8.18332 12.3518 8.22229L8.64997 11.6901C8.53307 11.807 8.41616 11.9629 8.41616 12.1577L8.29927 13.0928C8.29927 13.2097 8.10443 13.2487 8.06547 13.0928L7.59786 11.3784C7.48096 11.1836 7.5589 10.9498 7.75374 10.8719Z" fill="white"/>
</svg>
