<svg width="20" height="21" viewBox="0 0 20 21" fill="none" xmlns="http://www.w3.org/2000/svg">
<circle cx="10" cy="10.4658" r="10" fill="#F40000"/>
<path d="M14.3566 9.92238C14.3566 9.72844 14.3243 9.50218 14.3243 9.2436C14.2919 8.98501 14.2596 8.72643 14.2273 8.50016C14.1626 8.24158 14.0657 8.04764 13.8717 7.88602C13.7101 7.72441 13.4838 7.62743 13.2576 7.59511C12.5141 7.49814 11.4152 7.46582 9.92829 7.46582C8.44142 7.46582 7.3101 7.49814 6.59899 7.59511C6.37273 7.62743 6.14646 7.72441 5.98485 7.88602C5.82323 8.04764 5.69394 8.24158 5.62929 8.50016C5.56464 8.72643 5.53233 8.95269 5.53233 9.2436C5.5 9.50218 5.5 9.72844 5.5 9.92238C5.5 10.1163 5.5 10.3426 5.5 10.6658C5.5 10.9891 5.5 11.2476 5.5 11.4093C5.5 11.6032 5.53233 11.8295 5.53233 12.088C5.56465 12.3466 5.59697 12.6052 5.62929 12.8315C5.69394 13.0901 5.79091 13.284 5.98485 13.4456C6.14646 13.6072 6.37273 13.7042 6.59899 13.7365C7.34242 13.8335 8.44142 13.8658 9.92829 13.8658C11.4152 13.8658 12.5465 13.8335 13.2576 13.7365C13.4838 13.7042 13.7101 13.6072 13.8717 13.4456C14.0333 13.284 14.1626 13.0901 14.2273 12.8315C14.2919 12.6052 14.3243 12.379 14.3243 12.088C14.3566 11.8295 14.3566 11.6032 14.3566 11.4093C14.3566 11.2153 14.3566 10.9891 14.3566 10.6658C14.3566 10.3426 14.3566 10.084 14.3566 9.92238ZM11.6414 10.9244L9.08788 12.5082C9.05556 12.5406 8.99091 12.5729 8.92627 12.5729C8.86162 12.5729 8.8293 12.5729 8.76465 12.5406C8.66768 12.4759 8.60303 12.379 8.60303 12.2497V9.04966C8.60303 8.92036 8.66768 8.8234 8.76465 8.75875C8.86162 8.6941 8.99091 8.6941 9.08788 8.75875L11.6414 10.3426C11.7384 10.4072 11.803 10.5042 11.803 10.6012C11.803 10.6981 11.7384 10.8598 11.6414 10.9244Z" fill="white"/>
</svg>
