<svg width="20" height="21" viewBox="0 0 20 21" fill="none" xmlns="http://www.w3.org/2000/svg">
<circle cx="10" cy="10.3574" r="10" fill="url(#paint0_linear_124_983)"/>
<path d="M13.2904 6.35742H7.20961C6.52308 6.35742 6 6.8805 6 7.56704V13.6478C6 14.3343 6.52308 14.8574 7.20961 14.8574H13.2904C13.9769 14.8574 14.5 14.3343 14.5 13.6478V7.56704C14.5 6.8805 13.9769 6.35742 13.2904 6.35742ZM10.25 13.1574C11.6558 13.1574 12.8 12.0459 12.8 10.7055C12.8 10.4767 12.7673 10.2151 12.7019 10.019H13.4212V13.4843C13.4212 13.6478 13.2904 13.8113 13.0942 13.8113H7.40577C7.24231 13.8113 7.07885 13.6805 7.07885 13.4843V9.98627H7.83077C7.76539 10.2151 7.73269 10.444 7.73269 10.6728C7.7 12.0459 8.84423 13.1574 10.25 13.1574ZM10.25 12.1767C9.33462 12.1767 8.61538 11.4574 8.61538 10.5747C8.61538 9.69204 9.33462 8.97281 10.25 8.97281C11.1654 8.97281 11.8846 9.69204 11.8846 10.5747C11.8846 11.4901 11.1654 12.1767 10.25 12.1767ZM13.3885 8.67858C13.3885 8.87473 13.225 9.03819 13.0288 9.03819H12.1135C11.9173 9.03819 11.7538 8.87473 11.7538 8.67858V7.79588C11.7538 7.59973 11.9173 7.43627 12.1135 7.43627H13.0288C13.225 7.43627 13.3885 7.59973 13.3885 7.79588V8.67858Z" fill="white"/>
<defs>
<linearGradient id="paint0_linear_124_983" x1="4.25" y1="18.1074" x2="17.5" y2="4.35742" gradientUnits="userSpaceOnUse">
<stop stop-color="#EEA054"/>
<stop offset="0.502762" stop-color="#D64763"/>
<stop offset="1" stop-color="#B62A99"/>
</linearGradient>
</defs>
</svg>
