<svg width="20" height="21" viewBox="0 0 20 21" fill="none" xmlns="http://www.w3.org/2000/svg">
<circle cx="10" cy="10.252" r="10" fill="#55ACE3"/>
<path d="M15.3 7.70183C14.95 7.85183 14.55 7.95183 14.15 8.00183C14.55 7.75183 14.9 7.35183 15.05 6.90183C14.65 7.15183 14.25 7.30183 13.75 7.40183C13.4 7.00183 12.85 6.75183 12.3 6.75183C11.2 6.75183 10.3 7.65183 10.3 8.75183C10.3 8.90183 10.3 9.05183 10.35 9.20183C8.7 9.10183 7.2 8.30183 6.2 7.10183C6.05 7.40183 5.95 7.75183 5.95 8.10183C5.95 8.80183 6.3 9.40183 6.85 9.75183C6.5 9.75183 6.2 9.65183 5.95 9.50183C5.95 10.4518 6.64999 11.3018 7.54999 11.4518C7.39999 11.5018 7.2 11.5018 7 11.5018C6.85 11.5018 6.75 11.5018 6.6 11.4518C6.85 12.2518 7.6 12.8518 8.5 12.8518C7.8 13.4018 6.95 13.7018 6 13.7018C5.85 13.7018 5.7 13.7018 5.5 13.6518C6.4 14.2018 7.45 14.5518 8.6 14.5518C12.3 14.5518 14.3 11.5018 14.3 8.85183V8.60183C14.7 8.45183 15.05 8.10183 15.3 7.70183Z" fill="white"/>
</svg>
